<svg xmlns="http://www.w3.org/2000/svg" width="28.572" height="25" viewBox="0 0 28.572 25">
  <path id="quote-left-solid" d="M25.893,44.5H21.429V40.929A3.575,3.575,0,0,1,25,37.357h.446a1.336,1.336,0,0,0,1.339-1.339V33.339A1.336,1.336,0,0,0,25.446,32H25a8.926,8.926,0,0,0-8.929,8.929V54.321A2.679,2.679,0,0,0,18.75,57h7.143a2.679,2.679,0,0,0,2.679-2.679V47.179A2.679,2.679,0,0,0,25.893,44.5Zm-16.071,0H5.357V40.929a3.575,3.575,0,0,1,3.571-3.571h.446a1.336,1.336,0,0,0,1.339-1.339V33.339A1.336,1.336,0,0,0,9.375,32H8.929A8.926,8.926,0,0,0,0,40.929V54.321A2.679,2.679,0,0,0,2.679,57H9.821A2.679,2.679,0,0,0,12.5,54.321V47.179A2.679,2.679,0,0,0,9.821,44.5Z" transform="translate(0 -32)" fill="#fff"/>
</svg>
