<svg xmlns="http://www.w3.org/2000/svg" width="28.571" height="25" viewBox="0 0 28.571 25">
  <path id="quote-right-solid" d="M25.893,32H18.75a2.679,2.679,0,0,0-2.679,2.679v7.143A2.679,2.679,0,0,0,18.75,44.5h4.464v3.571a3.575,3.575,0,0,1-3.571,3.571H19.2a1.336,1.336,0,0,0-1.339,1.339v2.679A1.336,1.336,0,0,0,19.2,57h.446a8.926,8.926,0,0,0,8.929-8.929V34.679A2.679,2.679,0,0,0,25.893,32ZM9.821,32H2.679A2.679,2.679,0,0,0,0,34.679v7.143A2.679,2.679,0,0,0,2.679,44.5H7.143v3.571a3.575,3.575,0,0,1-3.571,3.571H3.125a1.336,1.336,0,0,0-1.339,1.339v2.679A1.336,1.336,0,0,0,3.125,57h.446A8.926,8.926,0,0,0,12.5,48.071V34.679A2.679,2.679,0,0,0,9.821,32Z" transform="translate(0 -32)" fill="#fff"/>
</svg>
